<svg id="visual" viewBox="0 0 2140 1080" width="2140" height="1080" xmlns="http://www.w3.org/2000/svg" xmlns:xlink="http://www.w3.org/1999/xlink" version="1.1"><rect width="2140" height="1080" fill="#57d7e8"></rect><g><g transform="translate(1894 667)"><path d="M0 -201.7L129.6 -154.5L198.6 -35L174.7 100.8L69 189.5L-69 189.5L-174.7 100.8L-198.6 -35L-129.6 -154.5Z" fill="none" stroke="#2997a6" stroke-width="2"></path></g><g transform="translate(1490 235)"><path d="M0 -134L86.1 -102.6L132 -23.3L116 67L45.8 125.9L-45.8 125.9L-116 67L-132 -23.3L-86.1 -102.6Z" fill="none" stroke="#2997a6" stroke-width="2"></path></g><g transform="translate(878 604)"><path d="M0 -170L109.3 -130.2L167.4 -29.5L147.2 85L58.1 159.7L-58.1 159.7L-147.2 85L-167.4 -29.5L-109.3 -130.2Z" stroke="#2997a6" fill="none" stroke-width="2"></path></g></g></svg>