<svg id="visual" viewBox="0 0 2140 1080" width="2140" height="1080" xmlns="http://www.w3.org/2000/svg" xmlns:xlink="http://www.w3.org/1999/xlink" version="1.1"><rect x="0" y="0" width="2140" height="1080" fill="#b661ee"></rect><path d="M0 509L178 509L178 540L357 540L357 530L535 530L535 568L713 568L713 573L892 573L892 452L1070 452L1070 514L1248 514L1248 489L1427 489L1427 439L1605 439L1605 418L1783 418L1783 597L1962 597L1962 440L2140 440L2140 457L2140 1081L2140 1081L1962 1081L1962 1081L1783 1081L1783 1081L1605 1081L1605 1081L1427 1081L1427 1081L1248 1081L1248 1081L1070 1081L1070 1081L892 1081L892 1081L713 1081L713 1081L535 1081L535 1081L357 1081L357 1081L178 1081L178 1081L0 1081Z" fill="#9900ff"></path><path d="M0 617L178 617L178 562L357 562L357 636L535 636L535 671L713 671L713 558L892 558L892 686L1070 686L1070 658L1248 658L1248 577L1427 577L1427 525L1605 525L1605 650L1783 650L1783 518L1962 518L1962 520L2140 520L2140 662L2140 1081L2140 1081L1962 1081L1962 1081L1783 1081L1783 1081L1605 1081L1605 1081L1427 1081L1427 1081L1248 1081L1248 1081L1070 1081L1070 1081L892 1081L892 1081L713 1081L713 1081L535 1081L535 1081L357 1081L357 1081L178 1081L178 1081L0 1081Z" fill="#8b00e8"></path><path d="M0 732L178 732L178 658L357 658L357 691L535 691L535 772L713 772L713 655L892 655L892 751L1070 751L1070 642L1248 642L1248 634L1427 634L1427 684L1605 684L1605 749L1783 749L1783 768L1962 768L1962 623L2140 623L2140 667L2140 1081L2140 1081L1962 1081L1962 1081L1783 1081L1783 1081L1605 1081L1605 1081L1427 1081L1427 1081L1248 1081L1248 1081L1070 1081L1070 1081L892 1081L892 1081L713 1081L713 1081L535 1081L535 1081L357 1081L357 1081L178 1081L178 1081L0 1081Z" fill="#7e00d1"></path><path d="M0 809L178 809L178 754L357 754L357 725L535 725L535 837L713 837L713 816L892 816L892 817L1070 817L1070 737L1248 737L1248 780L1427 780L1427 743L1605 743L1605 791L1783 791L1783 745L1962 745L1962 796L2140 796L2140 758L2140 1081L2140 1081L1962 1081L1962 1081L1783 1081L1783 1081L1605 1081L1605 1081L1427 1081L1427 1081L1248 1081L1248 1081L1070 1081L1070 1081L892 1081L892 1081L713 1081L713 1081L535 1081L535 1081L357 1081L357 1081L178 1081L178 1081L0 1081Z" fill="#7000bb"></path><path d="M0 918L178 918L178 913L357 913L357 844L535 844L535 877L713 877L713 877L892 877L892 896L1070 896L1070 851L1248 851L1248 880L1427 880L1427 924L1605 924L1605 842L1783 842L1783 864L1962 864L1962 843L2140 843L2140 846L2140 1081L2140 1081L1962 1081L1962 1081L1783 1081L1783 1081L1605 1081L1605 1081L1427 1081L1427 1081L1248 1081L1248 1081L1070 1081L1070 1081L892 1081L892 1081L713 1081L713 1081L535 1081L535 1081L357 1081L357 1081L178 1081L178 1081L0 1081Z" fill="#6300a5"></path><path d="M0 987L178 987L178 992L357 992L357 995L535 995L535 939L713 939L713 1024L892 1024L892 1015L1070 1015L1070 922L1248 922L1248 1006L1427 1006L1427 999L1605 999L1605 955L1783 955L1783 921L1962 921L1962 952L2140 952L2140 988L2140 1081L2140 1081L1962 1081L1962 1081L1783 1081L1783 1081L1605 1081L1605 1081L1427 1081L1427 1081L1248 1081L1248 1081L1070 1081L1070 1081L892 1081L892 1081L713 1081L713 1081L535 1081L535 1081L357 1081L357 1081L178 1081L178 1081L0 1081Z" fill="#560090"></path></svg>