<svg id="visual" viewBox="0 0 900 600" width="900" height="600" xmlns="http://www.w3.org/2000/svg" xmlns:xlink="http://www.w3.org/1999/xlink" version="1.1"><rect width="900" height="600" fill="#64b8f4"></rect><g><g transform="translate(401 266)"><path d="M0 -60L35.2 -48.5L57 -18.5L57 18.5L35.2 48.5L0 60L-35.2 48.5L-57 18.5L-57 -18.5L-35.2 -48.5Z" fill="none" stroke="#7285f3" stroke-width="2"></path></g><g transform="translate(374 136)"><path d="M0 -37L21.7 -29.9L35.2 -11.4L35.2 11.4L21.7 29.9L0 37L-21.7 29.9L-35.2 11.4L-35.2 -11.4L-21.7 -29.9Z" fill="none" stroke="#7285f3" stroke-width="2"></path></g><g transform="translate(403 429)"><path d="M0 -37L21.7 -29.9L35.2 -11.4L35.2 11.4L21.7 29.9L0 37L-21.7 29.9L-35.2 11.4L-35.2 -11.4L-21.7 -29.9Z" fill="none" stroke="#7285f3" stroke-width="2"></path></g><g transform="translate(307 526)"><path d="M0 -55L32.3 -44.5L52.3 -17L52.3 17L32.3 44.5L0 55L-32.3 44.5L-52.3 17L-52.3 -17L-32.3 -44.5Z" fill="none" stroke="#7285f3" stroke-width="2"></path></g><g transform="translate(788 86)"><path d="M0 -44L25.9 -35.6L41.8 -13.6L41.8 13.6L25.9 35.6L0 44L-25.9 35.6L-41.8 13.6L-41.8 -13.6L-25.9 -35.6Z" fill="none" stroke="#7285f3" stroke-width="2"></path></g></g></svg>